<svg width="19" height="19" viewBox="0 0 19 19" fill="none" xmlns="http://www.w3.org/2000/svg">
    <path d="M8.73339 2.62294L8.63339 2.62295L8.63338 2.72295L8.63236 9.07947L2.27584 9.08034L2.17584 9.08035L2.17582 9.18035L2.17573 9.76731L2.17571 9.86731L2.27571 9.86729L8.63223 9.86643L8.63121 16.223L8.6312 16.323L8.7312 16.3229L9.31815 16.3229L9.41815 16.3228L9.41817 16.2228L9.41919 9.86632L15.7757 9.86546L15.8757 9.86545L15.8757 9.76545L15.8758 9.17849L15.8758 9.07849L15.7758 9.07851L9.41932 9.07937L9.42034 2.72285L9.42035 2.62285L9.32035 2.62286L8.73339 2.62294Z"
          fill="#FCD620" stroke="#FCD620" stroke-width="0.2"/>
</svg>
